<svg xmlns="http://www.w3.org/2000/svg" viewBox="0 0 128 128" width="128" height="128">
  <rect width="128" height="128" rx="16" fill="#1a1a2e"/>

  <!-- Stage/canvas area -->
  <rect x="12" y="12" width="104" height="78" rx="8" fill="#16213e"/>

  <!-- Bouncing ball animation trail -->
  <circle cx="34" cy="64" r="9" fill="#6c5ce7" opacity="0.25"/>
  <circle cx="56" cy="36" r="11" fill="#6c5ce7" opacity="0.5"/>
  <circle cx="80" cy="56" r="11" fill="#6c5ce7" opacity="0.75"/>
  <circle cx="100" cy="30" r="13" fill="#a29bfe"/>

  <!-- Motion arc (dotted path) -->
  <path d="M 34 64 Q 46 18 56 36 Q 66 54 80 56 Q 90 58 100 30" fill="none" stroke="#a29bfe" stroke-width="1.5" stroke-dasharray="3,3" opacity="0.4"/>

  <!-- Timeline bar -->
  <rect x="12" y="98" width="104" height="18" rx="9" fill="#16213e"/>

  <!-- Timeline track -->
  <rect x="18" y="104" width="92" height="6" rx="3" fill="#2c3e50"/>

  <!-- Keyframe diamonds -->
  <rect x="26" y="103" width="8" height="8" rx="1.5" transform="rotate(45 30 107)" fill="#e74c3c"/>
  <rect x="49" y="103" width="8" height="8" rx="1.5" transform="rotate(45 53 107)" fill="#f39c12"/>
  <rect x="72" y="103" width="8" height="8" rx="1.5" transform="rotate(45 76 107)" fill="#2ecc71"/>
  <rect x="95" y="103" width="8" height="8" rx="1.5" transform="rotate(45 99 107)" fill="#3498db"/>
</svg>
